# xmcd
#
# Track frame offsets: 
#        150
#        18503
#        32809
#        50656
#        66599
#        85428
#        99713
#        125648
#        142474
#        159289
#        180484
#        199262
#        214697
#        231913
#        251278
#        268369
#        288291
#        304344
#        327973
#        344441
#
# Disc length: 4805 seconds
#
# Revision: 3
# Processed by: cddbd v1.5.2PL0 Copyright (c) Steve Scherf et al.
# Submitted via: ExactAudioCopy v1.0b1
#
DISCID=4012c314
DTITLE=Various Artist - All Stars Disco #9
DYEAR=2000
DGENRE=Disco
TTITLE0=Adriano Celentano - Uh, Uh
TTITLE1=El Pasador - Amada Mia, Amore Mio
TTITLE2=Dr.Alban - It's My Life
TTITLE3=Arabesque - Zanzibar
TTITLE4=Neoton Familia - Ket Szaahusz
TTITLE5=Albano and Romina Power - Felicita
TTITLE6=Madonna - Like A Prayer
TTITLE7=Londonbeat - I've Been Thinking About You
TTITLE8=Bangles - Eternal Flame
TTITLE9=Outhere Brothers - Boom Boom Boom (Dirty)
TTITLE10=Radiorama - Aliens
TTITLE11=Demis Roussos - We Shall Dance
TTITLE12=Sabrina - Boys
TTITLE13=A-Ha - Crying In The Rain
TTITLE14=C.C.Catch - I Can Loose My Heart Tonight
TTITLE15=Zucchero and Paul Young - Senza Una Donna (Without A Woman)
TTITLE16=KLF - Last Train To Trancentral
TTITLE17=A. Lennox - A Whiter Shade Of Pale
TTITLE18=F.R.David - Girl (You Are My Song)
TTITLE19=Loona - Bailando
EXTD=
EXTT0=
EXTT1=
EXTT2=
EXTT3=
EXTT4=
EXTT5=
EXTT6=
EXTT7=
EXTT8=
EXTT9=
EXTT10=
EXTT11=
EXTT12=
EXTT13=
EXTT14=
EXTT15=
EXTT16=
EXTT17=
EXTT18=
EXTT19=
PLAYORDER=
